<?xml version="1.0" encoding="utf-8"?>
<!-- Generator: Adobe Illustrator 22.0.1, SVG Export Plug-In . SVG Version: 6.00 Build 0)  -->
<svg version="1.1" id="Layer_1" xmlns="http://www.w3.org/2000/svg" xmlns:xlink="http://www.w3.org/1999/xlink" x="0px" y="0px"
	 viewBox="0 0 36 36" style="enable-background:new 0 0 36 36;" xml:space="preserve">
<style type="text/css">
	.st0{fill:#49494B;}
	.st1{fill:#24A69A;}
</style>
<circle class="st0" cx="17.9" cy="18.2" r="17.5"/>
<g>
	<path class="st1" d="M27.6,18.6c-0.2,0.1-0.4,0.2-0.6,0.3c-2.4,1.1-4.3,2.8-5.8,5.1c-1.2,1.8-2,3.8-2.5,6c-0.3,1.5-0.5,3-0.6,4.5
		c0,0.3-0.1,0.6-0.1,0.9c0,0.1,0,0.2-0.1,0.3c0,0,0,0-0.1,0c0-0.1-0.1-0.2-0.1-0.3c-0.1-0.7-0.1-1.4-0.2-2.1
		c-0.3-2.4-0.7-4.7-1.7-6.9c-1.1-2.4-2.6-4.4-4.7-6c-0.9-0.7-1.8-1.2-2.9-1.6c-0.1,0-0.1-0.1-0.1-0.2C8.2,17,8.3,15.5,8.5,14
		c0.2-1.8,0.4-3.6,0.5-5.4C9,8.4,9,8.2,9.1,8c0,0,0,0,0,0c0,0.1,0.1,0.2,0.1,0.4c0.1,1,0.3,1.9,0.4,2.9c0.2,1.5,0.4,3,0.8,4.5
		c0.1,0.3,0.2,0.6,0.3,0.8c0.4-0.1,0.7-0.2,1.1-0.4c0,0,0.1-0.1,0.1-0.1c0.2-0.6,0.3-1.3,0.5-1.9c0.4-1.8,0.5-3.7,0.7-5.5
		c0.2-1.5,0.3-3,0.5-4.4c0-0.1,0-0.1,0.1-0.2c0,0.2,0.1,0.4,0.1,0.6c0.2,1.8,0.3,3.6,0.5,5.3c0.2,1.6,0.3,3.3,0.7,4.9
		c0,0.2,0.1,0.4,0.1,0.6c0,0.1,0.1,0.1,0.2,0.1c0.3,0,0.6-0.1,0.9-0.1c0.1,0,0.1,0,0.2-0.1c0.2-0.8,0.4-1.6,0.5-2.4
		c0.3-2,0.5-4,0.6-6c0.1-1.7,0.2-3.5,0.3-5.2c0-0.3,0.1-0.6,0.1-0.9c0,0,0-0.1,0.1-0.1c0,0.1,0.1,0.2,0.1,0.3
		c0.1,0.9,0.1,1.7,0.2,2.6c0.2,2.3,0.3,4.7,0.5,7c0.1,1.5,0.4,3,0.7,4.5c0,0.1,0.1,0.3,0.1,0.4c0.1,0.1,0.3,0.1,0.4,0.1
		c0.2,0,0.4,0,0.6,0.1c0.1,0,0.2,0,0.2-0.1c0.1-0.6,0.3-1.2,0.4-1.8c0.2-2,0.5-4,0.7-6c0.1-1.1,0.2-2.2,0.3-3.3c0-0.1,0-0.1,0-0.2
		c0,0,0,0,0,0c0,0.4,0.1,0.8,0.1,1.1c0.2,2.3,0.5,4.5,0.7,6.8c0.1,1.3,0.4,2.5,0.7,3.8c0.1,0.4,0.2,0.6,0.6,0.6
		c0.2,0,0.4,0.1,0.7,0.2c0.1-0.2,0.1-0.3,0.2-0.5c0.3-1,0.5-2,0.6-3c0.2-1.4,0.4-2.9,0.6-4.3c0-0.3,0.1-0.6,0.1-0.9c0,0,0,0,0.1,0
		c0,0.1,0.1,0.2,0.1,0.3c0.1,1,0.2,1.9,0.3,2.9c0.2,2.2,0.4,4.4,0.6,6.6c0,0.2,0,0.5,0.1,0.7C27.6,18.6,27.6,18.6,27.6,18.6z"/>
</g>
</svg>
