<?xml version="1.0" encoding="UTF-8" standalone="no"?>
<!-- Created with Inkscape (http://www.inkscape.org/) -->

<svg
   xmlns:dc="http://purl.org/dc/elements/1.1/"
   xmlns:cc="http://creativecommons.org/ns#"
   xmlns:rdf="http://www.w3.org/1999/02/22-rdf-syntax-ns#"
   xmlns:svg="http://www.w3.org/2000/svg"
   xmlns="http://www.w3.org/2000/svg"
   xmlns:sodipodi="http://sodipodi.sourceforge.net/DTD/sodipodi-0.dtd"
   xmlns:inkscape="http://www.inkscape.org/namespaces/inkscape"
   width="197.11456mm"
   height="275.16666mm"
   viewBox="0 0 197.11456 275.16666"
   version="1.1"
   id="svg8"
   sodipodi:docname="foil_indicator.svg"
   inkscape:version="0.92.4 (5da689c313, 2019-01-14)">
  <defs
     id="defs2" />
  <sodipodi:namedview
     id="base"
     pagecolor="#ffffff"
     bordercolor="#666666"
     borderopacity="1.0"
     inkscape:pageopacity="0.0"
     inkscape:pageshadow="2"
     inkscape:zoom="0.35"
     inkscape:cx="92.749222"
     inkscape:cy="341.28197"
     inkscape:document-units="mm"
     inkscape:current-layer="layer2"
     showgrid="false"
     inkscape:window-width="1920"
     inkscape:window-height="1017"
     inkscape:window-x="-8"
     inkscape:window-y="-8"
     inkscape:window-maximized="1" />
  <metadata
     id="metadata5">
    <rdf:RDF>
      <cc:Work
         rdf:about="">
        <dc:format>image/svg+xml</dc:format>
        <dc:type
           rdf:resource="http://purl.org/dc/dcmitype/StillImage" />
      </cc:Work>
    </rdf:RDF>
  </metadata>
  <g
     inkscape:label="Layer 1"
     inkscape:groupmode="layer"
     id="layer1"
     transform="translate(-13.077989,-11.280944)" />
  <g
     inkscape:groupmode="layer"
     id="layer2"
     inkscape:label="Layer 2"
     transform="translate(-4.2900414,-2.2988011)">
    <path
       style="fill:#ffffff;fill-opacity:0.68627453;stroke-width:0.26458332"
       d="m 165.87612,106.54464 c -0.4902,-9.898455 -2.0863,-15.160555 -5.777,-19.045905 -2.14914,-2.26248 -4.64504,-3.69889 -8.23466,-4.73912 -2.59723,-0.75265 -7.13164,-1.48269 -9.20925,-1.48269 -2.13285,0 -1.40882,-0.263 1.50304,-0.54598 9.90345,-0.96241 15.70378,-4.01982 18.64244,-9.82659 1.69404,-3.34742 2.73272,-8.55983 3.07572,-15.43495 l 0.19748,-3.958106 0.18543,3.826006 c 0.34309,7.07892 1.15974,11.3905 2.82727,14.92686 1.33413,2.82931 2.80082,4.6235 5.09882,6.23732 3.17203,2.22763 7.8023,3.64449 13.82181,4.22946 2.91187,0.28298 3.6359,0.54598 1.50305,0.54598 -2.07761,0 -6.61202,0.73004 -9.20926,1.48269 -9.62394,2.7889 -13.31779,9.04878 -14.03515,23.785025 l -0.19319,3.96875 z M 138.63015,57.199845 c -0.10547,-0.80037 -0.19281,-2.01466 -0.19407,-2.69843 -0.007,-4.026007 -1.37667,-10.313438 -2.97203,-13.647461 -1.23435,-2.579573 -4.40456,-5.680675 -7.18859,-7.031889 -2.53369,-1.229712 -6.02859,-2.147961 -9.71438,-2.552356 -1.51205,-0.165899 -3.22542,-0.397843 -3.80751,-0.515435 l -1.05833,-0.213802 1.32292,-0.03252 c 4.47551,-0.110014 9.9168,-1.323692 13.32753,-2.972697 1.75966,-0.850752 2.70984,-1.534576 4.14576,-2.983627 3.72071,-3.754744 5.31996,-8.502115 5.93239,-17.6102509 0.13996,-2.081577 0.31852,-3.848727 0.39679,-3.927001 0.0783,-0.07827 0.14603,0.859798 0.15057,2.084596 0.005,1.224802 0.17239,3.59613 0.373,5.2696189 1.31526,10.971868 4.88739,15.88839 13.50937,18.593697 1.96426,0.61632 6.87922,1.425273 9.65729,1.589489 l 1.19063,0.07038 -1.19063,0.174377 c -0.65484,0.09591 -2.6453,0.361614 -4.42323,0.59046 -6.0409,0.777549 -10.09591,2.486091 -13.19939,5.561433 -3.6991,3.665574 -5.38579,8.902398 -5.8835,18.267038 -0.16157,3.03996 -0.20509,3.27051 -0.37459,1.98438 z m 46.53572,-19.57917 c -0.66404,-8.053025 -2.73659,-12.168346 -7.20132,-14.299163 -1.84933,-0.882602 -5.83286,-1.831128 -7.71462,-1.836944 -0.61847,-0.0019 -1.12448,-0.122539 -1.12448,-0.26806 0,-0.14552 0.50601,-0.266147 1.12448,-0.268059 1.88176,-0.0058 5.86529,-0.954342 7.71462,-1.836944 4.46473,-2.130819 6.53729,-6.24617 7.20131,-14.2991629 l 0.20726,-2.513541 0.21399,3.032889 c 0.63141,8.9487449 3.3452,12.9560079 10.03936,14.8244029 1.06793,0.298066 2.80489,0.616535 3.85991,0.70771 1.05503,0.09117 1.91823,0.249891 1.91823,0.352705 0,0.102815 -0.8632,0.261533 -1.91823,0.352706 -1.05502,0.09118 -2.81035,0.414732 -3.90072,0.719018 -6.65833,1.858121 -9.38296,5.923431 -10.01002,14.935568 l -0.20251,2.910416 z"
       id="path58"
       inkscape:connector-curvature="0" />
    <path
       style="fill:#ffffff;fill-opacity:0.68627453;stroke-width:0.26458332"
       d="m 39.818521,173.21962 c 0.49021,9.89845 2.08631,15.16055 5.777,19.0459 2.14915,2.26248 4.64505,3.6989 8.23467,4.73912 2.59723,0.75265 7.13164,1.48269 9.20925,1.48269 2.13285,0 1.40882,0.263 -1.50304,0.54598 -9.90345,0.96241 -15.70378,4.01982 -18.64244,9.8266 -1.69404,3.34741 -2.73272,8.55982 -3.07572,15.43495 l -0.19748,3.9581 -0.18543,-3.82601 c -0.34309,-7.07892 -1.15974,-11.3905 -2.82728,-14.92686 -1.33412,-2.82931 -2.80081,-4.62349 -5.09881,-6.23732 -3.17203,-2.22763 -7.80231,-3.64449 -13.82181,-4.22946 -2.91187,-0.28298 -3.6359,-0.54598 -1.50305,-0.54598 2.07761,0 6.61201,-0.73004 9.20925,-1.48269 9.62395,-2.7889 13.3178,-9.04878 14.03516,-23.78502 l 0.19319,-3.96875 z m 27.24598,49.34479 c 0.10547,0.80037 0.19281,2.01466 0.19407,2.69843 0.007,4.02601 1.37667,10.31344 2.97203,13.64747 1.23435,2.57957 4.40456,5.68067 7.18859,7.03188 2.53369,1.22972 6.02859,2.14796 9.71438,2.55236 1.51205,0.1659 3.22542,0.39784 3.80751,0.51544 l 1.05833,0.2138 -1.32292,0.0325 c -4.47551,0.11001 -9.9168,1.32369 -13.32753,2.97269 -1.75966,0.85076 -2.70984,1.53458 -4.14576,2.98363 -3.72071,3.75475 -5.31996,8.50212 -5.93239,17.61025 -0.13996,2.08158 -0.31852,3.84873 -0.39679,3.927 -0.0783,0.0783 -0.14603,-0.85979 -0.15057,-2.08459 -0.005,-1.22481 -0.17239,-3.59613 -0.373,-5.26962 -1.31526,-10.97187 -4.88739,-15.88839 -13.50937,-18.5937 -1.96426,-0.61632 -6.87922,-1.42527 -9.65729,-1.58949 l -1.19063,-0.0704 1.19063,-0.17437 c 0.65484,-0.0959 2.6453,-0.36162 4.42323,-0.59046 6.0409,-0.77755 10.09591,-2.4861 13.19939,-5.56144 3.6991,-3.66557 5.38579,-8.9024 5.8835,-18.26703 0.16157,-3.03996 0.20509,-3.27051 0.37459,-1.98439 z m -46.53572,19.57917 c 0.66404,8.05303 2.73659,12.16835 7.20132,14.29917 1.84933,0.8826 5.83285,1.83113 7.71462,1.83694 0.61847,0.002 1.12448,0.12254 1.12448,0.26806 0,0.14552 -0.50601,0.26615 -1.12448,0.26806 -1.88177,0.006 -5.86529,0.95434 -7.71462,1.83694 -4.46473,2.13082 -6.53729,6.24617 -7.20131,14.29917 l -0.20727,2.51354 -0.21399,-3.03289 c -0.6314,-8.94875 -3.34519,-12.95601 -10.03936,-14.8244 -1.0679296,-0.29807 -2.8048796,-0.61654 -3.8598996,-0.70771 -1.05504,-0.0912 -1.91823,-0.24989 -1.91823,-0.35271 0,-0.10281 0.86319,-0.26153 1.91823,-0.3527 1.05502,-0.0912 2.81034,-0.41474 3.9007196,-0.71902 6.65833,-1.85812 9.38295,-5.92343 10.01001,-14.93557 l 0.20252,-2.91042 z"
       id="path58-7"
       inkscape:connector-curvature="0" />
    <path
       style="fill:#ffffff;fill-opacity:0.68627453;stroke-width:0.26458332"
       d="m 108.84836,186.51757 c -0.49021,-9.89845 -2.08631,-15.16054 -5.777,-19.04589 -2.14915,-2.26248 -4.645053,-3.6989 -8.234673,-4.73912 -2.59723,-0.75265 -7.13164,-1.48269 -9.20925,-1.48269 -2.13285,0 -1.40882,-0.263 1.50304,-0.54598 9.90345,-0.96241 15.703783,-4.01982 18.642443,-9.8266 1.69404,-3.34741 2.73272,-8.55982 3.07572,-15.43495 l 0.19748,-3.9581 0.18543,3.82601 c 0.34309,7.07892 1.15974,11.3905 2.82728,14.92686 1.33412,2.82931 2.80081,4.62349 5.09881,6.23732 3.17203,2.22763 7.80231,3.64449 13.82181,4.22946 2.91187,0.28298 3.6359,0.54598 1.50305,0.54598 -2.07761,0 -6.61201,0.73004 -9.20925,1.48269 -9.62395,2.7889 -13.3178,9.04878 -14.03516,23.78501 l -0.19319,3.96875 z M 81.602377,137.17279 c -0.10547,-0.80037 -0.19281,-2.01466 -0.19407,-2.69843 -0.007,-4.02601 -1.37667,-10.31344 -2.97203,-13.64747 -1.23435,-2.57957 -4.40456,-5.68068 -7.18859,-7.03189 -2.53369,-1.22972 -6.02859,-2.14796 -9.71438,-2.55236 -1.51205,-0.1659 -3.22542,-0.39784 -3.80751,-0.51544 l -1.05833,-0.2138 1.32292,-0.0325 c 4.47551,-0.11001 9.9168,-1.32369 13.32753,-2.97269 1.75966,-0.85076 2.70984,-1.53458 4.14576,-2.98363 3.72071,-3.75475 5.31996,-8.502123 5.93239,-17.610253 0.13996,-2.081581 0.31852,-3.84873 0.39679,-3.927 0.0783,-0.0783 0.14603,0.85979 0.15057,2.084589 0.005,1.22481 0.17239,3.59613 0.373,5.269621 1.31526,10.971873 4.88739,15.888393 13.50937,18.593703 1.96426,0.61632 6.879223,1.42527 9.657293,1.58949 l 1.19063,0.0704 -1.19063,0.17437 c -0.65484,0.0959 -2.6453,0.36162 -4.42323,0.59046 -6.040903,0.77755 -10.095913,2.4861 -13.199393,5.56145 -3.6991,3.66557 -5.38579,8.9024 -5.8835,18.26703 -0.16157,3.03996 -0.20509,3.27051 -0.37459,1.98439 z M 128.1381,117.59362 c -0.66404,-8.05304 -2.73659,-12.16836 -7.20132,-14.29918 -1.84933,-0.8826 -5.83285,-1.83113 -7.71462,-1.83694 -0.61847,-0.002 -1.12448,-0.12254 -1.12448,-0.26806 0,-0.14552 0.50601,-0.26615 1.12448,-0.26806 1.88177,-0.006 5.86529,-0.954343 7.71462,-1.836943 4.46473,-2.13082 6.53729,-6.24617 7.20131,-14.29917 l 0.20727,-2.51354 0.21399,3.03289 c 0.6314,8.94875 3.34519,12.95601 10.03936,14.824403 1.06793,0.29807 2.80488,0.61654 3.8599,0.70771 1.05504,0.0912 1.91823,0.24989 1.91823,0.35271 0,0.10281 -0.86319,0.26153 -1.91823,0.3527 -1.05502,0.0912 -2.81034,0.41474 -3.90072,0.71902 -6.65833,1.85812 -9.38295,5.92343 -10.01001,14.93558 l -0.20252,2.91042 z"
       id="path58-7-8"
       inkscape:connector-curvature="0" />
    <path
       style="fill:#ffffff;fill-opacity:0.68627453;stroke-width:0.26458332"
       d="m 39.818522,106.54464 c 0.49021,-9.898451 2.08631,-15.160551 5.777,-19.045901 2.14915,-2.26248 4.64505,-3.6989 8.23467,-4.73912 2.59723,-0.75265 7.13164,-1.48269 9.20925,-1.48269 2.13285,0 1.40882,-0.263 -1.50304,-0.54598 -9.90345,-0.96241 -15.70378,-4.01982 -18.64244,-9.8266 -1.69404,-3.34741 -2.73272,-8.55982 -3.07572,-15.43495 l -0.19748,-3.9581 -0.18543,3.82601 c -0.34309,7.07892 -1.15974,11.3905 -2.82728,14.92686 -1.33412,2.82931 -2.80081,4.62349 -5.09881,6.23732 -3.17203,2.22763 -7.80231,3.64449 -13.82181,4.22946 -2.91187,0.28298 -3.6359,0.54598 -1.50305,0.54598 2.07761,0 6.61201,0.73004 9.20925,1.48269 9.62395,2.7889 13.3178,9.04878 14.03516,23.785021 l 0.19319,3.96875 z m 27.24598,-49.344791 c 0.10547,-0.80037 0.19281,-2.01466 0.19407,-2.69843 0.007,-4.02601 1.37667,-10.31344 2.97203,-13.64747 1.23435,-2.57957 4.40456,-5.68067 7.18859,-7.03188 2.53369,-1.22972 6.02859,-2.14796 9.71438,-2.55236 1.51205,-0.1659 3.22542,-0.39784 3.80751,-0.51544 l 1.058329,-0.2138 -1.322919,-0.0325 c -4.47551,-0.11001 -9.9168,-1.32369 -13.32753,-2.97269 -1.75966,-0.85076 -2.70984,-1.53458 -4.14576,-2.98363 -3.72071,-3.75475 -5.31996,-8.502119 -5.93239,-17.6102574 -0.13996,-2.08158 -0.31852,-3.84872 -0.39679,-3.92699 -0.0783,-0.0783 -0.14603,0.85979 -0.15057,2.08458 -0.005,1.22481 -0.17239,3.59613 -0.373,5.2696204 -1.31526,10.971877 -4.88739,15.888397 -13.50937,18.593707 -1.96426,0.61632 -6.87922,1.42527 -9.65729,1.58949 l -1.19063,0.0704 1.19063,0.17437 c 0.65484,0.0959 2.6453,0.36162 4.42323,0.59046 6.0409,0.77755 10.09591,2.4861 13.19939,5.56144 3.6991,3.66557 5.38579,8.9024 5.8835,18.26703 0.16157,3.03996 0.20509,3.27051 0.37459,1.98439 z m -46.53572,-19.57917 c 0.66404,-8.05303 2.73659,-12.16835 7.20132,-14.29917 1.84933,-0.8826 5.83285,-1.83113 7.71462,-1.83694 0.61847,-0.002 1.12448,-0.12254 1.12448,-0.26806 0,-0.14552 -0.50601,-0.26615 -1.12448,-0.26806 -1.88177,-0.006 -5.86529,-0.95434 -7.71462,-1.83694 -4.46473,-2.130819 -6.53729,-6.246169 -7.20131,-14.2991674 l -0.20727,-2.51354 -0.21399,3.03289 c -0.6314,8.9487484 -3.34519,12.9560074 -10.03936,14.8243974 -1.0679304,0.29807 -2.8048804,0.61654 -3.8599004,0.70771 -1.05504,0.0912 -1.91823,0.24989 -1.91823,0.35271 0,0.10281 0.86319,0.26153 1.91823,0.3527 1.05502,0.0912 2.81034,0.41474 3.9007204,0.71902 6.65833,1.85812 9.38295,5.92343 10.01001,14.93557 l 0.20252,2.91042 z"
       id="path58-7-8-4"
       inkscape:connector-curvature="0" />
    <path
       style="fill:#ffffff;fill-opacity:0.68627453;stroke-width:0.26458332"
       d="m 165.87613,173.21962 c -0.49021,9.89845 -2.08631,15.16055 -5.777,19.0459 -2.14915,2.26248 -4.64505,3.6989 -8.23467,4.73912 -2.59723,0.75265 -7.13164,1.48269 -9.20925,1.48269 -2.13285,0 -1.40882,0.26299 1.50304,0.54597 9.90345,0.96242 15.70378,4.01982 18.64244,9.82661 1.69404,3.34741 2.73272,8.55982 3.07572,15.43495 l 0.19748,3.9581 0.18543,-3.82601 c 0.34309,-7.07892 1.15974,-11.3905 2.82728,-14.92686 1.33412,-2.82931 2.80081,-4.62349 5.09881,-6.23733 3.17203,-2.22762 7.80231,-3.64449 13.82181,-4.22946 2.91187,-0.28298 3.6359,-0.54597 1.50305,-0.54597 -2.07761,0 -6.61201,-0.73004 -9.20925,-1.48269 -9.62395,-2.7889 -13.3178,-9.04878 -14.03516,-23.78502 l -0.19319,-3.96875 z m -27.24598,49.34479 c -0.10547,0.80037 -0.19281,2.01466 -0.19407,2.69843 -0.007,4.02601 -1.37667,10.31344 -2.97203,13.64747 -1.23435,2.57957 -4.40456,5.68067 -7.18859,7.03188 -2.53369,1.22972 -6.02859,2.14796 -9.71438,2.55236 -1.51205,0.1659 -3.22542,0.39784 -3.80751,0.51544 l -1.05833,0.2138 1.32292,0.0325 c 4.47551,0.11001 9.9168,1.32369 13.32753,2.97269 1.75966,0.85076 2.70984,1.53458 4.14576,2.98363 3.72071,3.75475 5.31996,8.50212 5.93239,17.61026 0.13996,2.08158 0.31852,3.84872 0.39679,3.92699 0.0783,0.0783 0.14603,-0.85979 0.15057,-2.08458 0.005,-1.22481 0.17239,-3.59613 0.373,-5.26962 1.31526,-10.97188 4.88739,-15.8884 13.50937,-18.59371 1.96426,-0.61632 6.87922,-1.42527 9.65729,-1.58949 l 1.19063,-0.0704 -1.19063,-0.17437 c -0.65484,-0.0959 -2.6453,-0.36162 -4.42323,-0.59046 -6.0409,-0.77755 -10.09591,-2.4861 -13.19939,-5.56144 -3.6991,-3.66557 -5.38579,-8.9024 -5.8835,-18.26703 -0.16157,-3.03996 -0.20509,-3.27051 -0.37459,-1.98439 z m 46.53572,19.57917 c -0.66404,8.05303 -2.73659,12.16835 -7.20132,14.29917 -1.84933,0.8826 -5.83285,1.83113 -7.71462,1.83694 -0.61847,0.002 -1.12448,0.12254 -1.12448,0.26806 0,0.14552 0.50601,0.26615 1.12448,0.26806 1.88177,0.006 5.86529,0.95434 7.71462,1.83694 4.46473,2.13082 6.53729,6.24617 7.20131,14.29917 l 0.20727,2.51354 0.21399,-3.03289 c 0.6314,-8.94875 3.34519,-12.95601 10.03936,-14.8244 1.06793,-0.29807 2.80488,-0.61654 3.8599,-0.70771 1.05504,-0.0912 1.91823,-0.24989 1.91823,-0.35271 0,-0.10281 -0.86319,-0.26153 -1.91823,-0.3527 -1.05502,-0.0912 -2.81034,-0.41474 -3.90072,-0.71902 -6.65833,-1.85812 -9.38295,-5.92343 -10.01001,-14.93557 l -0.20252,-2.91042 z"
       id="path58-7-8-4-1"
       inkscape:connector-curvature="0" />
  </g>
</svg>
