<?xml version="1.0" standalone="no"?>
<!DOCTYPE svg PUBLIC "-//W3C//DTD SVG 20010904//EN"
 "http://www.w3.org/TR/2001/REC-SVG-20010904/DTD/svg10.dtd">
<svg version="1.0" xmlns="http://www.w3.org/2000/svg"
 width="700.000000pt" height="700.000000pt" viewBox="0 0 700.000000 700.000000"
 preserveAspectRatio="xMidYMid meet">
<metadata>
Created by potrace 1.11, written by Peter Selinger 2001-2013
</metadata>
<g transform="translate(0.000000,700.000000) scale(0.100000,-0.100000)"
fill="#000000" stroke="none">
<path d="M3448 6865 c-2 -1 -70 -5 -153 -9 -82 -4 -161 -9 -175 -11 -14 -2
-47 -6 -75 -10 -608 -80 -1180 -319 -1655 -689 -345 -269 -657 -631 -872
-1011 -37 -66 -131 -256 -169 -340 -56 -128 -155 -427 -175 -528 -2 -12 -10
-49 -18 -82 -9 -33 -18 -82 -22 -110 -3 -27 -8 -53 -10 -56 -1 -3 -6 -28 -9
-56 -3 -27 -7 -60 -10 -73 -4 -20 -7 -54 -20 -220 -6 -69 -5 -359 0 -425 3
-27 7 -77 9 -110 5 -54 10 -96 20 -175 12 -87 52 -274 82 -385 168 -619 503
-1173 970 -1605 63 -59 153 -138 179 -158 368 -285 693 -460 1095 -590 438
-141 883 -189 1370 -147 36 3 75 7 85 9 11 2 46 7 78 10 72 9 323 60 397 82
527 155 904 353 1295 679 294 245 573 575 758 895 54 94 187 369 222 460 38
99 113 320 119 355 2 11 9 40 16 65 7 25 14 56 17 70 2 14 9 45 14 70 6 25 13
56 15 70 2 14 6 35 9 47 3 12 7 41 10 65 3 24 10 77 15 118 30 233 28 573 -4
820 -102 765 -437 1445 -977 1980 -193 192 -327 300 -549 446 -252 165 -606
330 -860 401 -97 27 -274 73 -300 77 -226 41 -305 51 -485 61 -180 10 -234 12
-237 10z"/>
</g>
</svg>
